<mxfile host="app.diagrams.net" modified="2023-05-05T09:22:03.685Z" agent="Mozilla/5.0 (Windows NT 10.0; Win64; x64) AppleWebKit/537.36 (KHTML, like Gecko) Chrome/112.0.0.0 Safari/537.36" etag="Nc3Ofqg5wwf9PdopiFUg" version="21.2.3" type="github">
  <diagram name="第 1 页" id="yB2aKCrz24odWWb_tVtd">
    <mxGraphModel dx="1674" dy="1877" grid="1" gridSize="10" guides="1" tooltips="1" connect="1" arrows="1" fold="1" page="1" pageScale="1" pageWidth="827" pageHeight="1169" math="0" shadow="0">
      <root>
        <mxCell id="0" />
        <mxCell id="1" parent="0" />
        <mxCell id="_Xwa_iLSkTiV_m_WX92b-16" style="edgeStyle=orthogonalEdgeStyle;rounded=0;orthogonalLoop=1;jettySize=auto;html=1;exitX=0.5;exitY=0;exitDx=0;exitDy=0;" edge="1" parent="1" source="_Xwa_iLSkTiV_m_WX92b-1" target="_Xwa_iLSkTiV_m_WX92b-4">
          <mxGeometry relative="1" as="geometry" />
        </mxCell>
        <mxCell id="_Xwa_iLSkTiV_m_WX92b-1" value="&lt;div style=&quot;box-sizing:border-box;width:100%;background:#e4e4e4;padding:2px;&quot;&gt;crm_book_article&lt;/div&gt;&lt;blockquote style=&quot;margin: 0 0 0 40px; border: none; padding: 0px;&quot;&gt;&lt;blockquote style=&quot;margin: 0 0 0 40px; border: none; padding: 0px;&quot;&gt;&lt;div&gt;&lt;span style=&quot;background-color: initial;&quot;&gt;id&lt;/span&gt;&lt;br&gt;&lt;/div&gt;&lt;/blockquote&gt;&lt;blockquote style=&quot;margin: 0 0 0 40px; border: none; padding: 0px;&quot;&gt;&lt;div&gt;article_no&lt;/div&gt;&lt;/blockquote&gt;&lt;blockquote style=&quot;margin: 0 0 0 40px; border: none; padding: 0px;&quot;&gt;&lt;div&gt;name&lt;/div&gt;&lt;/blockquote&gt;&lt;blockquote style=&quot;margin: 0 0 0 40px; border: none; padding: 0px;&quot;&gt;&lt;div&gt;author_ids&lt;/div&gt;&lt;/blockquote&gt;&lt;blockquote style=&quot;margin: 0 0 0 40px; border: none; padding: 0px;&quot;&gt;&lt;div&gt;author_names&lt;/div&gt;&lt;/blockquote&gt;&lt;blockquote style=&quot;margin: 0 0 0 40px; border: none; padding: 0px;&quot;&gt;&lt;div&gt;translator_ids&lt;/div&gt;&lt;/blockquote&gt;&lt;blockquote style=&quot;margin: 0 0 0 40px; border: none; padding: 0px;&quot;&gt;&lt;div&gt;translator_names&lt;/div&gt;&lt;/blockquote&gt;&lt;blockquote style=&quot;margin: 0 0 0 40px; border: none; padding: 0px;&quot;&gt;&lt;div&gt;word_count&lt;/div&gt;&lt;/blockquote&gt;&lt;blockquote style=&quot;margin: 0 0 0 40px; border: none; padding: 0px;&quot;&gt;&lt;div&gt;theme_ids&lt;/div&gt;&lt;/blockquote&gt;&lt;blockquote style=&quot;margin: 0 0 0 40px; border: none; padding: 0px;&quot;&gt;&lt;div&gt;theme_names&lt;/div&gt;&lt;/blockquote&gt;&lt;blockquote style=&quot;margin: 0 0 0 40px; border: none; padding: 0px;&quot;&gt;&lt;div&gt;genre_ids&lt;/div&gt;&lt;/blockquote&gt;&lt;blockquote style=&quot;margin: 0 0 0 40px; border: none; padding: 0px;&quot;&gt;&lt;div&gt;genre_names&lt;/div&gt;&lt;/blockquote&gt;&lt;blockquote style=&quot;margin: 0 0 0 40px; border: none; padding: 0px;&quot;&gt;&lt;div&gt;attachment_urls&lt;/div&gt;&lt;/blockquote&gt;&lt;blockquote style=&quot;margin: 0 0 0 40px; border: none; padding: 0px;&quot;&gt;&lt;div&gt;content&lt;/div&gt;&lt;/blockquote&gt;&lt;blockquote style=&quot;margin: 0 0 0 40px; border: none; padding: 0px;&quot;&gt;&lt;div&gt;created_time&lt;/div&gt;&lt;/blockquote&gt;&lt;blockquote style=&quot;margin: 0 0 0 40px; border: none; padding: 0px;&quot;&gt;&lt;div&gt;updated_time&lt;/div&gt;&lt;/blockquote&gt;&lt;blockquote style=&quot;margin: 0 0 0 40px; border: none; padding: 0px;&quot;&gt;&lt;div&gt;is_delete&lt;/div&gt;&lt;/blockquote&gt;&lt;blockquote style=&quot;margin: 0 0 0 40px; border: none; padding: 0px;&quot;&gt;&lt;div&gt;copyright_state&lt;/div&gt;&lt;/blockquote&gt;&lt;/blockquote&gt;" style="verticalAlign=top;align=left;overflow=fill;html=1;whiteSpace=wrap;" vertex="1" parent="1">
          <mxGeometry x="400" y="190" width="170" height="290" as="geometry" />
        </mxCell>
        <mxCell id="_Xwa_iLSkTiV_m_WX92b-3" style="edgeStyle=orthogonalEdgeStyle;rounded=0;orthogonalLoop=1;jettySize=auto;html=1;exitX=0;exitY=0.5;exitDx=0;exitDy=0;entryX=1.018;entryY=0.476;entryDx=0;entryDy=0;entryPerimeter=0;" edge="1" parent="1" source="_Xwa_iLSkTiV_m_WX92b-2" target="_Xwa_iLSkTiV_m_WX92b-1">
          <mxGeometry relative="1" as="geometry" />
        </mxCell>
        <mxCell id="_Xwa_iLSkTiV_m_WX92b-19" value="" style="edgeStyle=orthogonalEdgeStyle;rounded=0;orthogonalLoop=1;jettySize=auto;html=1;" edge="1" parent="1" source="_Xwa_iLSkTiV_m_WX92b-2" target="_Xwa_iLSkTiV_m_WX92b-11">
          <mxGeometry relative="1" as="geometry" />
        </mxCell>
        <mxCell id="_Xwa_iLSkTiV_m_WX92b-21" style="edgeStyle=orthogonalEdgeStyle;rounded=0;orthogonalLoop=1;jettySize=auto;html=1;exitX=1;exitY=0.5;exitDx=0;exitDy=0;entryX=0;entryY=0.5;entryDx=0;entryDy=0;" edge="1" parent="1" source="_Xwa_iLSkTiV_m_WX92b-2" target="_Xwa_iLSkTiV_m_WX92b-20">
          <mxGeometry relative="1" as="geometry" />
        </mxCell>
        <mxCell id="_Xwa_iLSkTiV_m_WX92b-2" value="&lt;div style=&quot;box-sizing:border-box;width:100%;background:#e4e4e4;padding:2px;&quot;&gt;crm_chapter_article_rel&lt;/div&gt;&lt;br&gt;&lt;br&gt;&lt;div&gt;&lt;div&gt;&amp;nbsp;id&lt;/div&gt;&lt;div&gt;&amp;nbsp;chapter_id&lt;/div&gt;&lt;div&gt;&amp;nbsp;&lt;b&gt;article_id&lt;/b&gt;&lt;/div&gt;&lt;div&gt;&amp;nbsp;contract_no&lt;/div&gt;&lt;div&gt;&amp;nbsp;attachment_url&lt;/div&gt;&lt;div&gt;&amp;nbsp;created_time&lt;/div&gt;&lt;div&gt;&amp;nbsp;updated_time&lt;/div&gt;&lt;div&gt;&amp;nbsp;is_delete&lt;/div&gt;&lt;div&gt;&amp;nbsp;content&lt;/div&gt;&lt;div&gt;&amp;nbsp;op_name&lt;/div&gt;&lt;div&gt;&amp;nbsp;reading_chapter_id&lt;/div&gt;&lt;/div&gt;" style="verticalAlign=top;align=left;overflow=fill;html=1;whiteSpace=wrap;" vertex="1" parent="1">
          <mxGeometry x="650" y="198" width="210" height="260" as="geometry" />
        </mxCell>
        <mxCell id="_Xwa_iLSkTiV_m_WX92b-4" value="&lt;div style=&quot;box-sizing:border-box;width:100%;background:#e4e4e4;padding:2px;&quot;&gt;crm_book_author&lt;/div&gt;&lt;br&gt;&lt;div&gt;&amp;nbsp; id&lt;/div&gt;&lt;div&gt;&amp;nbsp; author_no&lt;/div&gt;&lt;div&gt;&amp;nbsp; name&lt;/div&gt;&lt;div&gt;&amp;nbsp; birth_date&lt;/div&gt;&lt;div&gt;&amp;nbsp; death_date&lt;/div&gt;&lt;div&gt;&amp;nbsp; summary&lt;/div&gt;&lt;div&gt;&amp;nbsp; nation_id&lt;/div&gt;&lt;div&gt;&amp;nbsp; nation&lt;/div&gt;&lt;div&gt;&amp;nbsp; dynasty_id&lt;/div&gt;&lt;div&gt;&amp;nbsp; dynasty&lt;/div&gt;&lt;div&gt;&amp;nbsp; province_id&lt;/div&gt;&lt;div&gt;&amp;nbsp; province&lt;/div&gt;&lt;div&gt;&amp;nbsp; city_id&lt;/div&gt;&lt;div&gt;&amp;nbsp; city&lt;/div&gt;&lt;div&gt;&amp;nbsp; district_id&lt;/div&gt;&lt;div&gt;&amp;nbsp; district&lt;/div&gt;&lt;div&gt;&amp;nbsp; award_ids&lt;/div&gt;&lt;div&gt;&amp;nbsp; award&lt;/div&gt;&lt;div&gt;&amp;nbsp; lecture_ids&lt;/div&gt;&lt;div&gt;&amp;nbsp; lecture&lt;/div&gt;&lt;div&gt;&amp;nbsp; had_teach_exp&lt;/div&gt;&lt;div&gt;&amp;nbsp; is_choose_book&lt;/div&gt;&lt;div&gt;&amp;nbsp; cooperation_type&lt;/div&gt;&lt;div&gt;&amp;nbsp; cooperation&lt;/div&gt;&lt;div&gt;&amp;nbsp; contact_man&lt;/div&gt;&lt;div&gt;&amp;nbsp; contact_relation&lt;/div&gt;&lt;div&gt;&amp;nbsp; contact_tel&lt;/div&gt;&lt;div&gt;&amp;nbsp; contact_wechat&lt;/div&gt;&lt;div&gt;&amp;nbsp; contact_email&lt;/div&gt;&lt;div&gt;&amp;nbsp; contact_address&lt;/div&gt;&lt;div&gt;&amp;nbsp; auth_speed_times&lt;/div&gt;&lt;div&gt;&amp;nbsp; series_fee_pre&lt;/div&gt;&lt;div&gt;&amp;nbsp; magazine_fee_pre&lt;/div&gt;&lt;div&gt;&amp;nbsp; live_fee_pre&lt;/div&gt;&lt;div&gt;&amp;nbsp; recorded_fee_pre&lt;/div&gt;&lt;div&gt;&amp;nbsp; outline_fee_pre&lt;/div&gt;&lt;div&gt;&amp;nbsp; opening_bank&lt;/div&gt;&lt;div&gt;&amp;nbsp; account_name&lt;/div&gt;&lt;div&gt;&amp;nbsp; bank_account&lt;/div&gt;&lt;div&gt;&amp;nbsp; bank_branch_no&lt;/div&gt;&lt;div&gt;&amp;nbsp; created_time&lt;/div&gt;&lt;div&gt;&amp;nbsp; updated_time&lt;/div&gt;&lt;div&gt;&amp;nbsp; is_delete&lt;/div&gt;&lt;div&gt;&lt;div&gt;&amp;nbsp;&amp;nbsp;&lt;/div&gt;&lt;/div&gt;" style="verticalAlign=top;align=left;overflow=fill;html=1;whiteSpace=wrap;" vertex="1" parent="1">
          <mxGeometry x="390" y="-220" width="190" height="340" as="geometry" />
        </mxCell>
        <mxCell id="_Xwa_iLSkTiV_m_WX92b-17" value="" style="edgeStyle=orthogonalEdgeStyle;rounded=0;orthogonalLoop=1;jettySize=auto;html=1;" edge="1" parent="1" source="_Xwa_iLSkTiV_m_WX92b-6" target="_Xwa_iLSkTiV_m_WX92b-4">
          <mxGeometry relative="1" as="geometry" />
        </mxCell>
        <mxCell id="_Xwa_iLSkTiV_m_WX92b-6" value="&lt;div style=&quot;box-sizing:border-box;width:100%;background:#e4e4e4;padding:2px;&quot;&gt;crm_book_author_name&lt;/div&gt;&lt;br&gt;&lt;br&gt;&lt;div&gt;&lt;div&gt;&amp;nbsp;&amp;nbsp;&amp;nbsp; id&lt;/div&gt;&lt;div&gt;&amp;nbsp; author_id&lt;/div&gt;&lt;div&gt;&amp;nbsp; author_name&lt;/div&gt;&lt;div&gt;&amp;nbsp; type&lt;/div&gt;&lt;div&gt;&amp;nbsp; is_delete&lt;/div&gt;&lt;div&gt;&amp;nbsp; created_time&lt;/div&gt;&lt;div&gt;&amp;nbsp; updated_time&lt;/div&gt;&lt;/div&gt;" style="verticalAlign=top;align=left;overflow=fill;html=1;whiteSpace=wrap;" vertex="1" parent="1">
          <mxGeometry x="660" y="-180" width="210" height="260" as="geometry" />
        </mxCell>
        <mxCell id="_Xwa_iLSkTiV_m_WX92b-18" value="" style="edgeStyle=orthogonalEdgeStyle;rounded=0;orthogonalLoop=1;jettySize=auto;html=1;" edge="1" parent="1" source="_Xwa_iLSkTiV_m_WX92b-7" target="_Xwa_iLSkTiV_m_WX92b-1">
          <mxGeometry relative="1" as="geometry" />
        </mxCell>
        <mxCell id="_Xwa_iLSkTiV_m_WX92b-7" value="&lt;div style=&quot;box-sizing:border-box;width:100%;background:#e4e4e4;padding:2px;&quot;&gt;crm_book_author_nation&lt;/div&gt;&lt;br&gt;&lt;br&gt;&lt;div&gt;&lt;div&gt;&amp;nbsp;&amp;nbsp;&amp;nbsp; id&lt;/div&gt;&lt;div&gt;&amp;nbsp; name&lt;/div&gt;&lt;div&gt;&amp;nbsp; created_time&lt;/div&gt;&lt;div&gt;&amp;nbsp; updated_time&lt;/div&gt;&lt;div&gt;&amp;nbsp; is_delete&lt;/div&gt;&lt;/div&gt;" style="verticalAlign=top;align=left;overflow=fill;html=1;whiteSpace=wrap;" vertex="1" parent="1">
          <mxGeometry x="110" y="205" width="210" height="260" as="geometry" />
        </mxCell>
        <mxCell id="_Xwa_iLSkTiV_m_WX92b-12" value="" style="edgeStyle=orthogonalEdgeStyle;rounded=0;orthogonalLoop=1;jettySize=auto;html=1;" edge="1" parent="1" source="_Xwa_iLSkTiV_m_WX92b-9" target="_Xwa_iLSkTiV_m_WX92b-11">
          <mxGeometry relative="1" as="geometry" />
        </mxCell>
        <mxCell id="_Xwa_iLSkTiV_m_WX92b-9" value="&lt;div style=&quot;box-sizing:border-box;width:100%;background:#e4e4e4;padding:2px;&quot;&gt;&lt;strike&gt;crm_book_copyright&lt;/strike&gt;&lt;/div&gt;&lt;br&gt;&lt;br&gt;&lt;div&gt;&lt;div&gt;&amp;nbsp;&amp;nbsp;&amp;nbsp; id&lt;/div&gt;&lt;div&gt;&amp;nbsp; record_type&lt;/div&gt;&lt;div&gt;&amp;nbsp; record_id&lt;/div&gt;&lt;div&gt;&amp;nbsp; auth_source&lt;/div&gt;&lt;div&gt;&amp;nbsp; auth_record_name&lt;/div&gt;&lt;div&gt;&amp;nbsp; main_body&lt;/div&gt;&lt;div&gt;&amp;nbsp; type_flag&lt;/div&gt;&lt;div&gt;&amp;nbsp; is_fee_transfer&lt;/div&gt;&lt;div&gt;&amp;nbsp; is_allow_rewrite&lt;/div&gt;&lt;div&gt;&amp;nbsp; is_serial_no_limit&lt;/div&gt;&lt;div&gt;&amp;nbsp; auth_range&lt;/div&gt;&lt;div&gt;&amp;nbsp; auth_start_date&lt;/div&gt;&lt;div&gt;&amp;nbsp; auth_end_date&lt;/div&gt;&lt;div&gt;&amp;nbsp; auth_years&lt;/div&gt;&lt;div&gt;&amp;nbsp; word_count&lt;/div&gt;&lt;div&gt;&amp;nbsp; fee_pre&lt;/div&gt;&lt;div&gt;&amp;nbsp; fee_total&lt;/div&gt;&lt;div&gt;&amp;nbsp; auth_remark&lt;/div&gt;&lt;div&gt;&amp;nbsp; contract_no&lt;/div&gt;&lt;div&gt;&amp;nbsp; attachment_urls&lt;/div&gt;&lt;div&gt;&amp;nbsp; created_time&lt;/div&gt;&lt;div&gt;&amp;nbsp; updated_time&lt;/div&gt;&lt;div&gt;&amp;nbsp; is_delete&lt;/div&gt;&lt;/div&gt;" style="verticalAlign=top;align=left;overflow=fill;html=1;whiteSpace=wrap;fillColor=#f8cecc;strokeColor=#b85450;" vertex="1" parent="1">
          <mxGeometry x="950" y="551.25" width="230" height="392.5" as="geometry" />
        </mxCell>
        <mxCell id="_Xwa_iLSkTiV_m_WX92b-14" value="" style="edgeStyle=orthogonalEdgeStyle;rounded=0;orthogonalLoop=1;jettySize=auto;html=1;" edge="1" parent="1" source="_Xwa_iLSkTiV_m_WX92b-11" target="_Xwa_iLSkTiV_m_WX92b-13">
          <mxGeometry relative="1" as="geometry" />
        </mxCell>
        <mxCell id="_Xwa_iLSkTiV_m_WX92b-11" value="&lt;div style=&quot;box-sizing:border-box;width:100%;background:#e4e4e4;padding:2px;&quot;&gt;crm_copyright_contract&lt;/div&gt;&lt;br&gt;&lt;div&gt;&amp;nbsp; id&lt;/div&gt;&lt;div&gt;&amp;nbsp; contract_no&lt;/div&gt;&lt;div&gt;&amp;nbsp; auth_source&lt;/div&gt;&lt;div&gt;&amp;nbsp; main_body&lt;/div&gt;&lt;div&gt;&amp;nbsp; type_flag&lt;/div&gt;&lt;div&gt;&amp;nbsp; is_fee_transfer&lt;/div&gt;&lt;div&gt;&amp;nbsp; is_allow_rewrite&lt;/div&gt;&lt;div&gt;&amp;nbsp; serial_no_limit&lt;/div&gt;&lt;div&gt;&amp;nbsp; auth_range&lt;/div&gt;&lt;div&gt;&amp;nbsp; auth_start_date&lt;/div&gt;&lt;div&gt;&amp;nbsp; auth_end_date&lt;/div&gt;&lt;div&gt;&amp;nbsp; auth_years&lt;/div&gt;&lt;div&gt;&amp;nbsp; word_count&lt;/div&gt;&lt;div&gt;&amp;nbsp; fee_pre&lt;/div&gt;&lt;div&gt;&amp;nbsp; fee_total&lt;/div&gt;&lt;div&gt;&amp;nbsp; auth_remark&lt;/div&gt;&lt;div&gt;&amp;nbsp; attachment_urls&lt;/div&gt;&lt;div&gt;&amp;nbsp; contract_remark&lt;/div&gt;&lt;div&gt;&amp;nbsp; is_deleted&lt;/div&gt;&lt;div&gt;&amp;nbsp; op_name&lt;/div&gt;&lt;div&gt;&amp;nbsp; create_time&lt;/div&gt;&lt;div&gt;&amp;nbsp; update_time&lt;/div&gt;&lt;div&gt;&amp;nbsp; alarm_num&lt;/div&gt;&lt;div&gt;&amp;nbsp; updator&lt;/div&gt;&lt;div&gt;&lt;br&gt;&lt;/div&gt;" style="verticalAlign=top;align=left;overflow=fill;html=1;whiteSpace=wrap;" vertex="1" parent="1">
          <mxGeometry x="650" y="545" width="210" height="405" as="geometry" />
        </mxCell>
        <mxCell id="_Xwa_iLSkTiV_m_WX92b-15" style="edgeStyle=orthogonalEdgeStyle;rounded=0;orthogonalLoop=1;jettySize=auto;html=1;entryX=0.5;entryY=1;entryDx=0;entryDy=0;" edge="1" parent="1" source="_Xwa_iLSkTiV_m_WX92b-13" target="_Xwa_iLSkTiV_m_WX92b-1">
          <mxGeometry relative="1" as="geometry" />
        </mxCell>
        <mxCell id="_Xwa_iLSkTiV_m_WX92b-13" value="&lt;div style=&quot;box-sizing:border-box;width:100%;background:#e4e4e4;padding:2px;&quot;&gt;crm_copyright_article_rel&lt;/div&gt;&lt;br&gt;&lt;br&gt;&lt;div&gt;&lt;div&gt;&amp;nbsp; &amp;nbsp;id&lt;/div&gt;&lt;div&gt;&amp;nbsp; article_id&lt;/div&gt;&lt;div&gt;&amp;nbsp; contract_no&lt;/div&gt;&lt;div&gt;&amp;nbsp; auth_start_date&lt;/div&gt;&lt;div&gt;&amp;nbsp; auth_end_date&lt;/div&gt;&lt;div&gt;&amp;nbsp; remark&lt;/div&gt;&lt;div&gt;&amp;nbsp; is_deleted&lt;/div&gt;&lt;div&gt;&amp;nbsp; op_name&lt;/div&gt;&lt;div&gt;&amp;nbsp; create_time&lt;/div&gt;&lt;div&gt;&amp;nbsp; update_time&lt;/div&gt;&lt;div&gt;&amp;nbsp; main_body&lt;/div&gt;&lt;/div&gt;" style="verticalAlign=top;align=left;overflow=fill;html=1;whiteSpace=wrap;" vertex="1" parent="1">
          <mxGeometry x="380" y="617.5" width="210" height="260" as="geometry" />
        </mxCell>
        <mxCell id="_Xwa_iLSkTiV_m_WX92b-20" value="主题丛书" style="html=1;whiteSpace=wrap;" vertex="1" parent="1">
          <mxGeometry x="990" y="303" width="110" height="50" as="geometry" />
        </mxCell>
      </root>
    </mxGraphModel>
  </diagram>
</mxfile>
